<svg width="146" height="48" viewBox="0 0 146 48" fill="none" xmlns="http://www.w3.org/2000/svg">
<path d="M0 43.125C0.3125 43.125 0.572917 43.2682 0.78125 43.5547C0.989583 43.8672 1.19792 44.2057 1.40625 44.5703C1.58854 44.9609 1.8099 45.2995 2.07031 45.5859C2.33073 45.8984 2.69531 46.0547 3.16406 46.0547C3.91927 45.8203 4.57031 45.1693 5.11719 44.1016C5.66406 43.0599 6.08073 41.7578 6.36719 40.1953C6.67969 38.6328 6.875 36.875 6.95312 34.9219C7.05729 32.9948 7.04427 31.0156 6.91406 28.9844C6.78385 26.9792 6.54948 24.987 6.21094 23.0078C5.89844 21.0026 5.49479 19.1667 5 17.5V17.0703C5 16.8099 5.10417 16.5755 5.3125 16.3672C5.54688 16.1328 5.79427 16.0156 6.05469 16.0156C6.57552 17.8646 7.04427 19.8828 7.46094 22.0703C7.8776 24.2318 8.17708 26.4193 8.35938 28.6328C8.56771 30.8724 8.64583 33.0469 8.59375 35.1562C8.56771 37.2656 8.39844 39.1667 8.08594 40.8594C7.77344 42.5781 7.29167 44.0104 6.64062 45.1562C5.98958 46.3281 5.14323 47.0703 4.10156 47.3828C3.55469 47.7214 3.04688 47.7604 2.57812 47.5C2.08333 47.2656 1.65365 46.888 1.28906 46.3672C0.924479 45.8724 0.625 45.2995 0.390625 44.6484C0.15625 44.0234 0.0260417 43.5156 0 43.125ZM3.08594 6.67969V5.78125C3.08594 5.625 3.09896 5.48177 3.125 5.35156C3.17708 5.22135 3.25521 5.11719 3.35938 5.03906C3.46354 4.9349 3.60677 4.88281 3.78906 4.88281C4.02344 4.88281 4.19271 4.94792 4.29688 5.07812C4.40104 5.18229 4.46615 5.3125 4.49219 5.46875C4.54427 5.625 4.55729 5.79427 4.53125 5.97656C4.53125 6.15885 4.53125 6.3151 4.53125 6.44531C4.53125 6.60156 4.53125 6.77083 4.53125 6.95312C4.55729 7.13542 4.54427 7.31771 4.49219 7.5C4.46615 7.65625 4.40104 7.79948 4.29688 7.92969C4.19271 8.03385 4.02344 8.08594 3.78906 8.08594C3.60677 8.08594 3.46354 8.00781 3.35938 7.85156C3.25521 7.69531 3.17708 7.52604 3.125 7.34375C3.09896 7.13542 3.08594 6.91406 3.08594 6.67969ZM14.6094 22.4609C14.6094 21.7057 14.6875 20.7682 14.8438 19.6484C15.026 18.5286 15.2734 17.3698 15.5859 16.1719C15.9245 14.9479 16.3411 13.724 16.8359 12.5C17.3568 11.276 17.9427 10.1823 18.5938 9.21875C19.2448 8.22917 19.987 7.4349 20.8203 6.83594C21.6536 6.23698 22.5651 5.9375 23.5547 5.9375C23.5547 6.30208 23.3984 6.66667 23.0859 7.03125C22.7995 7.36979 22.4609 7.70833 22.0703 8.04688C21.7057 8.35938 21.3281 8.67188 20.9375 8.98438C20.5469 9.27083 20.2734 9.54427 20.1172 9.80469C19.4922 10.612 18.9323 11.5104 18.4375 12.5C17.9427 13.4635 17.513 14.4661 17.1484 15.5078C16.7839 16.5234 16.4974 17.5781 16.2891 18.6719C16.0807 19.7396 15.9766 20.7812 15.9766 21.7969C15.9766 21.9531 16.0026 22.2005 16.0547 22.5391C16.1068 22.8516 16.1719 23.1771 16.25 23.5156C16.3542 23.8542 16.4844 24.1536 16.6406 24.4141C16.7969 24.6484 16.9661 24.7656 17.1484 24.7656H17.2656C17.2917 24.7656 17.3177 24.7526 17.3438 24.7266C18.0469 23.9453 18.6328 23.099 19.1016 22.1875C19.5703 21.276 19.974 20.3385 20.3125 19.375C20.651 18.3854 20.9375 17.3828 21.1719 16.3672C21.4062 15.3516 21.6406 14.349 21.875 13.3594C21.9531 13.0729 21.9792 12.6432 21.9531 12.0703C21.9531 11.4974 21.9792 10.9375 22.0312 10.3906C22.1094 9.84375 22.2526 9.375 22.4609 8.98438C22.6693 8.56771 23.0469 8.35938 23.5938 8.35938C23.6979 8.35938 23.8151 8.3724 23.9453 8.39844C24.1016 8.39844 24.1797 8.41146 24.1797 8.4375C25.1432 10.4427 25.9635 12.1484 26.6406 13.5547C27.3177 14.9349 27.8906 16.0807 28.3594 16.9922C28.8281 17.9036 29.2057 18.6198 29.4922 19.1406C29.7786 19.6615 29.987 20.0651 30.1172 20.3516C30.2734 20.612 30.3776 20.7943 30.4297 20.8984C30.4818 20.9766 30.5078 21.0417 30.5078 21.0938C30.5339 21.1979 30.5599 21.3932 30.5859 21.6797C30.612 21.9401 30.625 22.2266 30.625 22.5391C30.651 22.8255 30.6641 23.112 30.6641 23.3984C30.6901 23.6589 30.7031 23.8281 30.7031 23.9062C30.4427 23.9062 30.1562 23.8932 29.8438 23.8672C29.5312 23.8411 29.3099 23.6719 29.1797 23.3594L24.1797 12.9688L23.75 12.5C23.6719 12.7865 23.5156 13.2943 23.2812 14.0234C23.0729 14.7526 22.8385 15.5339 22.5781 16.3672C22.3438 17.1745 22.1224 17.9427 21.9141 18.6719C21.7057 19.401 21.5625 19.9089 21.4844 20.1953C21.3281 20.5859 21.1198 21.1328 20.8594 21.8359C20.625 22.5391 20.3255 23.2422 19.9609 23.9453C19.5964 24.6484 19.1797 25.2604 18.7109 25.7812C18.2422 26.3021 17.7214 26.5625 17.1484 26.5625C16.6797 26.5625 16.2891 26.4193 15.9766 26.1328C15.6641 25.8203 15.4036 25.4427 15.1953 25C14.987 24.5573 14.8307 24.1016 14.7266 23.6328C14.6484 23.1641 14.6094 22.7734 14.6094 22.4609ZM31.9531 9.33594C32.0052 9.64844 32.0703 9.9349 32.1484 10.1953C32.1745 10.4557 32.2135 10.7161 32.2656 10.9766C32.3177 11.2109 32.3698 11.4193 32.4219 11.6016V11.9922C32.4479 12.1484 32.474 12.3828 32.5 12.6953C32.526 12.9818 32.5651 13.2943 32.6172 13.6328C32.6953 13.9453 32.7474 14.2578 32.7734 14.5703C32.8255 14.8828 32.8646 15.0911 32.8906 15.1953C32.9688 14.7005 33.099 14.1667 33.2812 13.5938C33.4896 12.9948 33.737 12.4609 34.0234 11.9922C34.3359 11.4974 34.7005 11.0807 35.1172 10.7422C35.5599 10.3776 36.1068 10.1953 36.7578 10.1953H36.9531C37.6042 10.7422 38.1641 11.3151 38.6328 11.9141C39.1276 12.513 39.5573 13.151 39.9219 13.8281C40.2865 14.5052 40.625 15.2214 40.9375 15.9766C41.25 16.7318 41.5755 17.5391 41.9141 18.3984H42.3828C42.487 17.6693 42.6693 16.8099 42.9297 15.8203C43.1901 14.8047 43.5417 13.8542 43.9844 12.9688C44.4531 12.0573 45.013 11.2891 45.6641 10.6641C46.3411 10.0391 47.1484 9.72656 48.0859 9.72656C48.5807 9.72656 49.0625 9.98698 49.5312 10.5078C50 11.0026 50.4427 11.6667 50.8594 12.5C51.3021 13.3073 51.6927 14.2057 52.0312 15.1953C52.3958 16.1589 52.6953 17.1224 52.9297 18.0859C53.1641 19.0234 53.3464 19.8828 53.4766 20.6641C53.6328 21.4453 53.7109 22.0443 53.7109 22.4609C53.7109 22.7214 53.6589 22.9427 53.5547 23.125C53.4766 23.3073 53.2943 23.3984 53.0078 23.3984C52.7214 23.3984 52.5 23.2292 52.3438 22.8906C52.2917 22.6823 52.2005 22.3698 52.0703 21.9531C51.9661 21.5365 51.849 21.0547 51.7188 20.5078C51.5885 19.9609 51.4323 19.401 51.25 18.8281C51.0938 18.2292 50.9375 17.6693 50.7812 17.1484C50.625 16.6016 50.4818 16.1198 50.3516 15.7031C50.2214 15.2865 50.1302 14.974 50.0781 14.7656C50 14.5052 49.8698 14.1927 49.6875 13.8281C49.5312 13.4635 49.3359 13.112 49.1016 12.7734C48.8672 12.4349 48.6068 12.1484 48.3203 11.9141C48.0339 11.6797 47.7083 11.5625 47.3438 11.5625C46.7448 11.5625 46.224 11.862 45.7812 12.4609C45.3385 13.0599 44.9609 13.763 44.6484 14.5703C44.362 15.3776 44.1406 16.1849 43.9844 16.9922C43.8542 17.7995 43.776 18.4115 43.75 18.8281C43.75 19.0104 43.737 19.3359 43.7109 19.8047C43.7109 20.2734 43.7109 20.7812 43.7109 21.3281C43.7109 21.875 43.7109 22.3828 43.7109 22.8516C43.737 23.3203 43.75 23.6458 43.75 23.8281C43.5677 24.0365 43.3984 24.2448 43.2422 24.4531C43.0859 24.6354 42.8646 24.7266 42.5781 24.7266C42.4479 24.7266 42.3177 24.7005 42.1875 24.6484C42.0833 24.5703 41.9922 24.4401 41.9141 24.2578C41.888 24.0495 41.8099 23.7109 41.6797 23.2422C41.5755 22.7734 41.4453 22.2786 41.2891 21.7578C41.1328 21.237 40.9896 20.7422 40.8594 20.2734C40.7292 19.8047 40.638 19.4792 40.5859 19.2969C40.5339 19.1667 40.4036 18.8802 40.1953 18.4375C40.013 17.9948 39.8047 17.513 39.5703 16.9922C39.3359 16.4453 39.1016 15.9245 38.8672 15.4297C38.6328 14.9349 38.4505 14.5573 38.3203 14.2969C38.0339 13.776 37.7474 13.3464 37.4609 13.0078C37.2005 12.6432 36.7708 12.4609 36.1719 12.4609C35.8594 12.4609 35.5729 12.5781 35.3125 12.8125C35.0781 13.0469 34.8698 13.3333 34.6875 13.6719C34.5312 14.0104 34.4141 14.362 34.3359 14.7266C34.2839 15.0911 34.2578 15.4036 34.2578 15.6641V25.625C34.2578 25.8854 34.1927 26.1068 34.0625 26.2891C33.9583 26.4714 33.7891 26.5625 33.5547 26.5625C33.4245 26.5625 33.2812 26.5365 33.125 26.4844C32.9688 26.4062 32.8906 26.263 32.8906 26.0547L30.5859 9.33594H31.9531ZM56.875 9.33594C56.9271 9.64844 56.9922 9.9349 57.0703 10.1953C57.0964 10.4557 57.1354 10.7161 57.1875 10.9766C57.2396 11.2109 57.2917 11.4193 57.3438 11.6016V11.9922C57.3698 12.1484 57.3958 12.3828 57.4219 12.6953C57.4479 12.9818 57.487 13.2943 57.5391 13.6328C57.6172 13.9453 57.6693 14.2578 57.6953 14.5703C57.7474 14.8828 57.7865 15.0911 57.8125 15.1953C57.8906 14.7005 58.0208 14.1667 58.2031 13.5938C58.4115 12.9948 58.6589 12.4609 58.9453 11.9922C59.2578 11.4974 59.6224 11.0807 60.0391 10.7422C60.4818 10.3776 61.0286 10.1953 61.6797 10.1953H61.875C62.526 10.7422 63.0859 11.3151 63.5547 11.9141C64.0495 12.513 64.4792 13.151 64.8438 13.8281C65.2083 14.5052 65.5469 15.2214 65.8594 15.9766C66.1719 16.7318 66.4974 17.5391 66.8359 18.3984H67.3047C67.4089 17.6693 67.5911 16.8099 67.8516 15.8203C68.112 14.8047 68.4635 13.8542 68.9062 12.9688C69.375 12.0573 69.9349 11.2891 70.5859 10.6641C71.263 10.0391 72.0703 9.72656 73.0078 9.72656C73.5026 9.72656 73.9844 9.98698 74.4531 10.5078C74.9219 11.0026 75.3646 11.6667 75.7812 12.5C76.224 13.3073 76.6146 14.2057 76.9531 15.1953C77.3177 16.1589 77.6172 17.1224 77.8516 18.0859C78.0859 19.0234 78.2682 19.8828 78.3984 20.6641C78.5547 21.4453 78.6328 22.0443 78.6328 22.4609C78.6328 22.7214 78.5807 22.9427 78.4766 23.125C78.3984 23.3073 78.2161 23.3984 77.9297 23.3984C77.6432 23.3984 77.4219 23.2292 77.2656 22.8906C77.2135 22.6823 77.1224 22.3698 76.9922 21.9531C76.888 21.5365 76.7708 21.0547 76.6406 20.5078C76.5104 19.9609 76.3542 19.401 76.1719 18.8281C76.0156 18.2292 75.8594 17.6693 75.7031 17.1484C75.5469 16.6016 75.4036 16.1198 75.2734 15.7031C75.1432 15.2865 75.0521 14.974 75 14.7656C74.9219 14.5052 74.7917 14.1927 74.6094 13.8281C74.4531 13.4635 74.2578 13.112 74.0234 12.7734C73.7891 12.4349 73.5286 12.1484 73.2422 11.9141C72.9557 11.6797 72.6302 11.5625 72.2656 11.5625C71.6667 11.5625 71.1458 11.862 70.7031 12.4609C70.2604 13.0599 69.8828 13.763 69.5703 14.5703C69.2839 15.3776 69.0625 16.1849 68.9062 16.9922C68.776 17.7995 68.6979 18.4115 68.6719 18.8281C68.6719 19.0104 68.6589 19.3359 68.6328 19.8047C68.6328 20.2734 68.6328 20.7812 68.6328 21.3281C68.6328 21.875 68.6328 22.3828 68.6328 22.8516C68.6589 23.3203 68.6719 23.6458 68.6719 23.8281C68.4896 24.0365 68.3203 24.2448 68.1641 24.4531C68.0078 24.6354 67.7865 24.7266 67.5 24.7266C67.3698 24.7266 67.2396 24.7005 67.1094 24.6484C67.0052 24.5703 66.9141 24.4401 66.8359 24.2578C66.8099 24.0495 66.7318 23.7109 66.6016 23.2422C66.4974 22.7734 66.3672 22.2786 66.2109 21.7578C66.0547 21.237 65.9115 20.7422 65.7812 20.2734C65.651 19.8047 65.5599 19.4792 65.5078 19.2969C65.4557 19.1667 65.3255 18.8802 65.1172 18.4375C64.9349 17.9948 64.7266 17.513 64.4922 16.9922C64.2578 16.4453 64.0234 15.9245 63.7891 15.4297C63.5547 14.9349 63.3724 14.5573 63.2422 14.2969C62.9557 13.776 62.6693 13.3464 62.3828 13.0078C62.1224 12.6432 61.6927 12.4609 61.0938 12.4609C60.7812 12.4609 60.4948 12.5781 60.2344 12.8125C60 13.0469 59.7917 13.3333 59.6094 13.6719C59.4531 14.0104 59.3359 14.362 59.2578 14.7266C59.2057 15.0911 59.1797 15.4036 59.1797 15.6641V25.625C59.1797 25.8854 59.1146 26.1068 58.9844 26.2891C58.8802 26.4714 58.7109 26.5625 58.4766 26.5625C58.3464 26.5625 58.2031 26.5365 58.0469 26.4844C57.8906 26.4062 57.8125 26.263 57.8125 26.0547L55.5078 9.33594H56.875ZM81.7969 9.33594C81.849 9.64844 81.9141 9.9349 81.9922 10.1953C82.0182 10.4557 82.0573 10.7161 82.1094 10.9766C82.1615 11.2109 82.2135 11.4193 82.2656 11.6016V11.9922C82.2917 12.1484 82.3177 12.3828 82.3438 12.6953C82.3698 12.9818 82.4089 13.2943 82.4609 13.6328C82.5391 13.9453 82.5911 14.2578 82.6172 14.5703C82.6693 14.8828 82.7083 15.0911 82.7344 15.1953C82.8125 14.7005 82.9427 14.1667 83.125 13.5938C83.3333 12.9948 83.5807 12.4609 83.8672 11.9922C84.1797 11.4974 84.5443 11.0807 84.9609 10.7422C85.4036 10.3776 85.9505 10.1953 86.6016 10.1953H86.7969C87.4479 10.7422 88.0078 11.3151 88.4766 11.9141C88.9714 12.513 89.401 13.151 89.7656 13.8281C90.1302 14.5052 90.4688 15.2214 90.7812 15.9766C91.0938 16.7318 91.4193 17.5391 91.7578 18.3984H92.2266C92.3307 17.6693 92.513 16.8099 92.7734 15.8203C93.0339 14.8047 93.3854 13.8542 93.8281 12.9688C94.2969 12.0573 94.8568 11.2891 95.5078 10.6641C96.1849 10.0391 96.9922 9.72656 97.9297 9.72656C98.4245 9.72656 98.9062 9.98698 99.375 10.5078C99.8438 11.0026 100.286 11.6667 100.703 12.5C101.146 13.3073 101.536 14.2057 101.875 15.1953C102.24 16.1589 102.539 17.1224 102.773 18.0859C103.008 19.0234 103.19 19.8828 103.32 20.6641C103.477 21.4453 103.555 22.0443 103.555 22.4609C103.555 22.7214 103.503 22.9427 103.398 23.125C103.32 23.3073 103.138 23.3984 102.852 23.3984C102.565 23.3984 102.344 23.2292 102.188 22.8906C102.135 22.6823 102.044 22.3698 101.914 21.9531C101.81 21.5365 101.693 21.0547 101.562 20.5078C101.432 19.9609 101.276 19.401 101.094 18.8281C100.938 18.2292 100.781 17.6693 100.625 17.1484C100.469 16.6016 100.326 16.1198 100.195 15.7031C100.065 15.2865 99.974 14.974 99.9219 14.7656C99.8438 14.5052 99.7135 14.1927 99.5312 13.8281C99.375 13.4635 99.1797 13.112 98.9453 12.7734C98.7109 12.4349 98.4505 12.1484 98.1641 11.9141C97.8776 11.6797 97.5521 11.5625 97.1875 11.5625C96.5885 11.5625 96.0677 11.862 95.625 12.4609C95.1823 13.0599 94.8047 13.763 94.4922 14.5703C94.2057 15.3776 93.9844 16.1849 93.8281 16.9922C93.6979 17.7995 93.6198 18.4115 93.5938 18.8281C93.5938 19.0104 93.5807 19.3359 93.5547 19.8047C93.5547 20.2734 93.5547 20.7812 93.5547 21.3281C93.5547 21.875 93.5547 22.3828 93.5547 22.8516C93.5807 23.3203 93.5938 23.6458 93.5938 23.8281C93.4115 24.0365 93.2422 24.2448 93.0859 24.4531C92.9297 24.6354 92.7083 24.7266 92.4219 24.7266C92.2917 24.7266 92.1615 24.7005 92.0312 24.6484C91.9271 24.5703 91.8359 24.4401 91.7578 24.2578C91.7318 24.0495 91.6536 23.7109 91.5234 23.2422C91.4193 22.7734 91.2891 22.2786 91.1328 21.7578C90.9766 21.237 90.8333 20.7422 90.7031 20.2734C90.5729 19.8047 90.4818 19.4792 90.4297 19.2969C90.3776 19.1667 90.2474 18.8802 90.0391 18.4375C89.8568 17.9948 89.6484 17.513 89.4141 16.9922C89.1797 16.4453 88.9453 15.9245 88.7109 15.4297C88.4766 14.9349 88.2943 14.5573 88.1641 14.2969C87.8776 13.776 87.5911 13.3464 87.3047 13.0078C87.0443 12.6432 86.6146 12.4609 86.0156 12.4609C85.7031 12.4609 85.4167 12.5781 85.1562 12.8125C84.9219 13.0469 84.7135 13.3333 84.5312 13.6719C84.375 14.0104 84.2578 14.362 84.1797 14.7266C84.1276 15.0911 84.1016 15.4036 84.1016 15.6641V25.625C84.1016 25.8854 84.0365 26.1068 83.9062 26.2891C83.8021 26.4714 83.6328 26.5625 83.3984 26.5625C83.2682 26.5625 83.125 26.5365 82.9688 26.4844C82.8125 26.4062 82.7344 26.263 82.7344 26.0547L80.4297 9.33594H81.7969ZM105.156 8.75C105.312 8.75 105.482 8.80208 105.664 8.90625C105.872 9.01042 106.003 9.15365 106.055 9.33594L108.789 22.8906C109.102 23.3594 109.323 23.737 109.453 24.0234C109.609 24.3099 109.688 24.6875 109.688 25.1562C109.688 25.3906 109.648 25.6901 109.57 26.0547C109.492 26.3932 109.31 26.5625 109.023 26.5625H108.867C108.815 26.5625 108.789 26.5495 108.789 26.5234C108.737 26.4974 108.659 26.4453 108.555 26.3672L107.969 25.7812C107.891 25.7031 107.852 25.651 107.852 25.625L105.156 10.1953V8.75ZM104.492 0C105.065 0 105.482 0.078125 105.742 0.234375C106.029 0.364583 106.172 0.703125 106.172 1.25C106.172 1.43229 106.159 1.65365 106.133 1.91406C106.107 2.17448 105.951 2.34375 105.664 2.42188C105.143 2.21354 104.818 1.875 104.688 1.40625C104.557 0.9375 104.492 0.46875 104.492 0ZM111.445 11.9922C111.445 11.8359 111.445 11.6536 111.445 11.4453C111.471 11.237 111.497 11.0417 111.523 10.8594C111.576 10.651 111.667 10.4818 111.797 10.3516C111.927 10.2214 112.109 10.1562 112.344 10.1562C112.396 10.1562 112.474 10.1693 112.578 10.1953C112.708 10.1953 112.799 10.1953 112.852 10.1953C112.878 12.0443 112.969 13.9453 113.125 15.8984C113.307 17.8516 113.659 19.7396 114.18 21.5625C114.206 21.276 114.271 20.7943 114.375 20.1172C114.505 19.4141 114.635 18.6849 114.766 17.9297C114.922 17.1484 115.065 16.4193 115.195 15.7422C115.352 15.0651 115.456 14.5833 115.508 14.2969C115.69 13.75 115.938 13.1901 116.25 12.6172C116.562 12.0182 116.94 11.4714 117.383 10.9766C117.852 10.4818 118.359 10.0781 118.906 9.76562C119.479 9.45312 120.078 9.29688 120.703 9.29688C121.745 9.29688 122.669 9.53125 123.477 10C124.284 10.4688 125 11.0938 125.625 11.875C126.276 12.6302 126.823 13.5026 127.266 14.4922C127.708 15.4557 128.073 16.4453 128.359 17.4609C128.646 18.4766 128.854 19.4531 128.984 20.3906C129.115 21.3281 129.18 22.1615 129.18 22.8906V23.3594C129.18 23.5156 129.154 23.6719 129.102 23.8281C129.076 23.9583 129.01 24.0755 128.906 24.1797C128.828 24.2578 128.672 24.2969 128.438 24.2969C128.177 24.2969 127.956 24.1406 127.773 23.8281C127.747 23.1771 127.669 22.4219 127.539 21.5625C127.435 20.7031 127.279 19.8047 127.07 18.8672C126.888 17.9036 126.628 16.9661 126.289 16.0547C125.977 15.1172 125.573 14.2839 125.078 13.5547C124.609 12.8255 124.049 12.2396 123.398 11.7969C122.747 11.3281 121.966 11.0938 121.055 11.0938C120.326 11.0938 119.688 11.224 119.141 11.4844C118.62 11.7448 118.177 12.1094 117.812 12.5781C117.448 13.0208 117.148 13.5547 116.914 14.1797C116.706 14.7786 116.549 15.4297 116.445 16.1328C116.367 16.4974 116.263 17.1484 116.133 18.0859C116.003 19.0234 115.859 20.026 115.703 21.0938C115.547 22.1615 115.404 23.1641 115.273 24.1016C115.169 25.0391 115.104 25.6901 115.078 26.0547C115 26.3151 114.857 26.4714 114.648 26.5234C114.466 26.5755 114.271 26.6016 114.062 26.6016C114.036 26.6016 113.971 26.5885 113.867 26.5625C113.763 26.5625 113.711 26.5495 113.711 26.5234L111.484 12.9688C111.484 12.9167 111.471 12.7734 111.445 12.5391C111.445 12.3047 111.445 12.1224 111.445 11.9922ZM135.312 41.4844C135.312 41.25 135.326 41.0026 135.352 40.7422C135.404 40.5078 135.482 40.3516 135.586 40.2734C135.716 40.2214 135.859 40.2995 136.016 40.5078C136.198 40.7161 136.419 41.1458 136.68 41.7969C137.513 41.7969 138.268 41.6146 138.945 41.25C139.648 40.9115 140.273 40.4427 140.82 39.8438C141.367 39.2448 141.823 38.5547 142.188 37.7734C142.578 36.9922 142.904 36.1849 143.164 35.3516C143.424 34.5182 143.607 33.6849 143.711 32.8516C143.841 32.0443 143.906 31.2891 143.906 30.5859C143.906 27.8776 143.646 25.1172 143.125 22.3047C142.604 19.4661 141.81 16.7969 140.742 14.2969C140.221 15.4427 139.766 16.6276 139.375 17.8516C138.984 19.0755 138.516 20.2604 137.969 21.4062C137.422 22.526 136.745 23.5417 135.938 24.4531C135.156 25.3385 134.102 26.0417 132.773 26.5625C132.305 26.5625 131.927 26.4453 131.641 26.2109C131.38 25.9505 131.172 25.638 131.016 25.2734C130.885 24.9089 130.807 24.5312 130.781 24.1406C130.755 23.724 130.742 23.3333 130.742 22.9688C130.742 22.3958 130.807 21.6406 130.938 20.7031C131.094 19.7396 131.328 18.7109 131.641 17.6172C131.953 16.5234 132.318 15.4297 132.734 14.3359C133.177 13.2422 133.685 12.2526 134.258 11.3672C134.831 10.4818 135.469 9.76562 136.172 9.21875C136.875 8.67188 137.643 8.39844 138.477 8.39844C138.737 8.39844 138.997 8.46354 139.258 8.59375C139.518 8.72396 139.779 8.86719 140.039 9.02344L140.82 9.49219C141.081 9.6224 141.354 9.72656 141.641 9.80469C141.719 10.1432 141.849 10.7031 142.031 11.4844C142.214 12.2656 142.409 13.151 142.617 14.1406C142.826 15.1042 143.034 16.1328 143.242 17.2266C143.477 18.3203 143.698 19.362 143.906 20.3516C144.115 21.3151 144.297 22.2005 144.453 23.0078C144.635 23.7891 144.753 24.362 144.805 24.7266C144.831 24.9089 144.87 25.2214 144.922 25.6641C145 26.0807 145.052 26.5234 145.078 26.9922C145.13 27.487 145.169 27.9427 145.195 28.3594C145.247 28.776 145.273 29.0625 145.273 29.2188C145.273 29.974 145.221 30.8594 145.117 31.875C145.013 32.8906 144.831 33.9323 144.57 35C144.31 36.0677 143.971 37.1224 143.555 38.1641C143.138 39.2057 142.617 40.1432 141.992 40.9766C141.367 41.8099 140.625 42.474 139.766 42.9688C138.932 43.4896 137.969 43.75 136.875 43.75C136.25 43.75 135.833 43.5156 135.625 43.0469C135.417 42.5781 135.312 42.0573 135.312 41.4844ZM132.07 22.6172V23.2812C132.07 23.5156 132.096 23.75 132.148 23.9844C132.201 24.1927 132.292 24.388 132.422 24.5703C132.552 24.7266 132.76 24.8047 133.047 24.8047C133.516 24.7786 133.984 24.5182 134.453 24.0234C134.948 23.5286 135.391 22.9557 135.781 22.3047C136.198 21.6536 136.562 21.0026 136.875 20.3516C137.214 19.6745 137.448 19.1667 137.578 18.8281C137.682 18.5938 137.839 18.151 138.047 17.5C138.281 16.849 138.516 16.1719 138.75 15.4688C138.984 14.7396 139.206 14.0495 139.414 13.3984C139.622 12.7214 139.766 12.2526 139.844 11.9922V11.7969C139.844 11.5885 139.753 11.4062 139.57 11.25C139.414 11.0938 139.219 10.9766 138.984 10.8984C138.776 10.8203 138.555 10.7552 138.32 10.7031C138.086 10.651 137.891 10.625 137.734 10.625C137.161 10.625 136.615 10.8984 136.094 11.4453C135.599 11.9922 135.143 12.6823 134.727 13.5156C134.31 14.349 133.932 15.2604 133.594 16.25C133.281 17.2135 133.008 18.151 132.773 19.0625C132.539 19.9479 132.357 20.7292 132.227 21.4062C132.122 22.0573 132.07 22.4609 132.07 22.6172Z" fill="white" style="fill:white;fill-opacity:1;"/>
</svg>
